<svg xmlns="http://www.w3.org/2000/svg" xmlns:xlink="http://www.w3.org/1999/xlink" version="1.1" x="0px" y="0px" viewBox="0 0 64 80" style="enable-background:new 0 0 64 64;" xml:space="preserve"><g><path d="M46.165,31.008c-0.566-1.052-1.399-1.959-2.455-2.619L39,25.446V23h2v-5c0-1.654-1.346-3-3-3h-2V9h12V1H33   c-2.757,0-5,2.243-5,5v9h-6.519c2.338-3.496,1.967-8.28-1.117-11.364c-3.51-3.509-9.219-3.509-12.729,0   c-3.509,3.509-3.509,9.219,0,12.728c0.951,0.952,2.107,1.659,3.364,2.104V23h2v2.446l-4.71,2.943C6.23,29.677,5,31.896,5,34.326V58   c0,2.757,2.243,5,5,5h32c2.43,0,4.456-1.744,4.904-4.046C53.65,58.487,59,52.863,59,46v-2C59,36.887,53.256,31.098,46.165,31.008z    M47,39.101c2.279,0.464,4,2.485,4,4.899v2c0,2.415-1.721,4.435-4,4.899V39.101z M46,7h-2V3h2V7z M30,6c0-1.654,1.346-3,3-3h9v4h-8   v8h-4V6z M11.415,16.503c-0.572-0.227-1.111-0.53-1.605-0.9L14,11.414L17.586,15H14C12.893,15,11.935,15.609,11.415,16.503z    M19.601,14.186L15.414,10l4.187-4.186C21.453,8.288,21.453,11.712,19.601,14.186z M18.187,4.4L14,8.586L9.813,4.4   C12.289,2.548,15.712,2.549,18.187,4.4z M8.399,5.814L12.586,10l-4.187,4.186C6.547,11.712,6.547,8.288,8.399,5.814z M45,58   c0,1.654-1.346,3-3,3H10c-1.654,0-3-1.346-3-3V34.326c0-1.735,0.879-3.321,2.351-4.24L15,26.554V23h18v-2H13v-3   c0-0.551,0.448-1,1-1h14h8h2c0.552,0,1,0.449,1,1v3h-4v2h2v3.554l5.649,3.531C44.121,31.005,45,32.59,45,34.326V37v16V58z M57,46   c0,5.728-4.402,10.442-10,10.949V52.92c3.386-0.488,6-3.401,6-6.92v-2c0-3.519-2.614-6.432-6-6.92v-2.754   c0-0.437-0.053-0.863-0.13-1.282C52.529,33.49,57,38.228,57,44V46z"/><path d="M15,31c-2.757,0-5,2.243-5,5s2.243,5,5,5s5-2.243,5-5S17.757,31,15,31z M15,39c-1.654,0-3-1.346-3-3s1.346-3,3-3   s3,1.346,3,3S16.654,39,15,39z"/><path d="M32,45c-3.309,0-6,2.691-6,6s2.691,6,6,6s6-2.691,6-6S35.309,45,32,45z M32,55c-2.206,0-4-1.794-4-4s1.794-4,4-4   s4,1.794,4,4S34.206,55,32,55z"/><path d="M14,47c-2.206,0-4,1.794-4,4s1.794,4,4,4s4-1.794,4-4S16.206,47,14,47z M14,53c-1.103,0-2-0.897-2-2s0.897-2,2-2   s2,0.897,2,2S15.103,53,14,53z"/><path d="M37,33c-2.206,0-4,1.794-4,4s1.794,4,4,4s4-1.794,4-4S39.206,33,37,33z M37,39c-1.103,0-2-0.897-2-2s0.897-2,2-2   s2,0.897,2,2S38.103,39,37,39z"/><path d="M31,29c0-2.206-1.794-4-4-4s-4,1.794-4,4s1.794,4,4,4S31,31.206,31,29z M25,29c0-1.103,0.897-2,2-2s2,0.897,2,2   s-0.897,2-2,2S25,30.103,25,29z"/></g><text x="0" y="79" fill="#000000" font-size="5px" font-weight="bold" font-family="'Helvetica Neue', Helvetica, Arial-Unicode, Arial, Sans-serif">Created by Eucalyp</text><text x="0" y="84" fill="#000000" font-size="5px" font-weight="bold" font-family="'Helvetica Neue', Helvetica, Arial-Unicode, Arial, Sans-serif">from the Noun Project</text></svg>