<svg xmlns="http://www.w3.org/2000/svg" xmlns:xlink="http://www.w3.org/1999/xlink" version="1.1" x="0px" y="0px" viewBox="0 0 100 125" style="enable-background:new 0 0 100 100;" xml:space="preserve"><style type="text/css">
	.st0{fill:none;stroke:#000000;stroke-width:2;stroke-linecap:round;stroke-linejoin:round;stroke-miterlimit:10;}
	.st1{fill:none;stroke:#000000;stroke-width:2;stroke-miterlimit:10;}
</style><path d="M37.21,57.46c0.084-0.546-0.291-1.056-0.837-1.14l-1.223-0.188c-0.549-0.082-1.057,0.291-1.14,0.837  c-0.084,0.546,0.291,1.056,0.837,1.14l1.223,0.188c0.051,0.008,0.103,0.012,0.152,0.012C36.708,58.309,37.135,57.955,37.21,57.46z"/><path d="M66.679,61.303c0.485,0,0.912-0.354,0.987-0.849c0.084-0.546-0.291-1.057-0.837-1.14l-1.224-0.188  c-0.547-0.086-1.057,0.291-1.14,0.837c-0.084,0.546,0.291,1.057,0.837,1.14l1.224,0.188C66.577,61.299,66.629,61.303,66.679,61.303z  "/><path d="M37.836,60.662c-0.354-0.423-0.984-0.482-1.408-0.127c-0.424,0.354-0.48,0.984-0.127,1.408l0.812,0.972  c0.198,0.237,0.481,0.359,0.769,0.359c0.226,0,0.453-0.076,0.64-0.232c0.424-0.354,0.48-0.984,0.127-1.408L37.836,60.662z"/><path d="M78.408,58.495c-0.424,0.354-0.48,0.984-0.127,1.408l0.812,0.972c0.198,0.237,0.481,0.359,0.769,0.359  c0.226,0,0.453-0.076,0.64-0.232c0.424-0.354,0.48-0.984,0.127-1.408l-0.812-0.972C79.463,58.198,78.832,58.141,78.408,58.495z"/><path d="M25.623,56.325c0.424-0.354,0.48-0.984,0.127-1.408l-0.812-0.972c-0.354-0.424-0.984-0.482-1.408-0.127  c-0.424,0.354-0.48,0.984-0.127,1.408l0.812,0.972c0.198,0.237,0.481,0.359,0.769,0.359C25.209,56.558,25.437,56.481,25.623,56.325z  "/><path d="M45.088,62.429c0.198,0.237,0.482,0.359,0.77,0.359c0.226,0,0.452-0.076,0.64-0.231c0.424-0.354,0.481-0.984,0.128-1.409  l-0.811-0.973c-0.354-0.424-0.982-0.48-1.409-0.128c-0.424,0.354-0.481,0.984-0.128,1.409L45.088,62.429z"/><path d="M25.506,62.737c0.038,0.005,0.076,0.007,0.114,0.007c0.502,0,0.935-0.376,0.992-0.887l0.146-1.279  c0.063-0.548-0.331-1.044-0.88-1.106c-0.542-0.071-1.045,0.33-1.106,0.88l-0.146,1.279C24.562,62.179,24.957,62.675,25.506,62.737z"/><path d="M31.301,60.391c0.178,0,0.357-0.047,0.52-0.146c0.472-0.287,0.621-0.903,0.333-1.374l-0.671-1.1  c-0.288-0.473-0.904-0.621-1.374-0.333c-0.472,0.287-0.621,0.903-0.333,1.374l0.671,1.1C30.635,60.221,30.964,60.391,31.301,60.391z  "/><path d="M62.284,54.151l0.146-1.279c0.062-0.549-0.331-1.045-0.88-1.106c-0.572-0.074-1.045,0.332-1.106,0.88l-0.146,1.279  c-0.062,0.549,0.331,1.045,0.88,1.106c0.039,0.005,0.077,0.007,0.114,0.007C61.794,55.038,62.227,54.661,62.284,54.151z"/><path d="M67.519,56.227c0.038,0.005,0.076,0.007,0.114,0.007c0.502,0,0.935-0.376,0.992-0.887l0.146-1.279  c0.063-0.548-0.331-1.044-0.88-1.106c-0.543-0.069-1.045,0.33-1.106,0.88l-0.146,1.279C66.575,55.668,66.97,56.164,67.519,56.227z"/><path d="M73.521,58.069c0.513-0.205,0.763-0.787,0.558-1.3s-0.787-0.763-1.3-0.558l-1.154,0.461c-0.513,0.205-0.763,0.787-0.558,1.3  c0.156,0.391,0.532,0.629,0.929,0.629c0.124,0,0.249-0.022,0.371-0.071L73.521,58.069z"/><path d="M57.796,58.819l-1.154,0.461c-0.513,0.205-0.763,0.787-0.558,1.3c0.156,0.391,0.532,0.629,0.929,0.629  c0.124,0,0.249-0.022,0.371-0.071l1.154-0.461c0.513-0.205,0.763-0.787,0.558-1.3C58.89,58.864,58.309,58.615,57.796,58.819z"/><path d="M30.964,53.984c0.124,0,0.249-0.022,0.371-0.071l1.154-0.461c0.513-0.205,0.763-0.787,0.558-1.3s-0.786-0.763-1.3-0.558  l-1.154,0.461c-0.513,0.205-0.763,0.787-0.558,1.3C30.191,53.746,30.567,53.984,30.964,53.984z"/><path d="M52.081,59.343c0.051,0.008,0.102,0.012,0.151,0.012c0.486,0,0.912-0.354,0.987-0.85c0.084-0.546-0.291-1.056-0.838-1.139  l-1.223-0.187c-0.547-0.087-1.056,0.292-1.139,0.838c-0.084,0.546,0.291,1.056,0.838,1.139L52.081,59.343z"/><path d="M56.435,54.613c0.084-0.546-0.291-1.056-0.838-1.139l-1.223-0.187c-0.55-0.085-1.056,0.292-1.139,0.838  c-0.084,0.546,0.291,1.056,0.838,1.139l1.223,0.187c0.051,0.008,0.102,0.012,0.151,0.012C55.934,55.463,56.359,55.108,56.435,54.613  z"/><path d="M78.898,54.479c0.051,0.008,0.102,0.012,0.151,0.012c0.486,0,0.912-0.354,0.987-0.85c0.084-0.546-0.292-1.056-0.838-1.139  l-1.224-0.187c-0.546-0.086-1.056,0.292-1.139,0.838c-0.084,0.546,0.292,1.056,0.838,1.139L78.898,54.479z"/><path d="M18.966,59.642l1.223,0.188c0.051,0.008,0.103,0.012,0.152,0.012c0.485,0,0.912-0.354,0.987-0.849  c0.084-0.546-0.291-1.056-0.837-1.14l-1.223-0.188c-0.549-0.082-1.057,0.291-1.14,0.837C18.045,59.048,18.42,59.558,18.966,59.642z"/><path d="M46.517,56.072c0.28,0,0.559-0.117,0.757-0.346l0.827-0.957c0.361-0.418,0.314-1.05-0.103-1.411  c-0.418-0.359-1.049-0.315-1.411,0.103l-0.827,0.957c-0.361,0.418-0.314,1.05,0.103,1.411  C46.052,55.992,46.284,56.072,46.517,56.072z"/><path d="M41.669,55.012c0.198,0.236,0.482,0.358,0.769,0.358c0.226,0,0.453-0.076,0.641-0.232c0.424-0.354,0.479-0.985,0.126-1.409  l-0.812-0.972c-0.354-0.422-0.983-0.479-1.409-0.126c-0.424,0.354-0.479,0.985-0.126,1.409L41.669,55.012z"/><path d="M64.129,67.435l-1.223-0.188c-0.545-0.084-1.057,0.291-1.14,0.837c-0.084,0.546,0.291,1.056,0.837,1.14l1.223,0.188  c0.051,0.008,0.103,0.012,0.152,0.012c0.485,0,0.912-0.354,0.987-0.849C65.05,68.028,64.675,67.519,64.129,67.435z"/><path d="M33.673,64.439l-1.223-0.187c-0.55-0.085-1.056,0.292-1.139,0.838c-0.084,0.546,0.291,1.056,0.838,1.139l1.223,0.187  c0.051,0.008,0.102,0.012,0.151,0.012c0.486,0,0.912-0.354,0.987-0.85C34.595,65.032,34.22,64.522,33.673,64.439z"/><path d="M68.609,63.952c-0.354-0.424-0.983-0.481-1.408-0.127c-0.424,0.354-0.48,0.984-0.127,1.408l0.812,0.972  c0.198,0.237,0.481,0.359,0.769,0.359c0.226,0,0.453-0.076,0.64-0.232c0.424-0.354,0.48-0.984,0.127-1.408L68.609,63.952z"/><path d="M19.93,67.281c0.226,0,0.453-0.076,0.64-0.232c0.424-0.354,0.48-0.984,0.127-1.408l-0.812-0.972  c-0.354-0.424-0.984-0.481-1.408-0.127s-0.48,0.984-0.127,1.408l0.812,0.972C19.359,67.159,19.643,67.281,19.93,67.281z"/><path d="M74.762,69.344c-0.354-0.423-0.983-0.48-1.409-0.126c-0.424,0.354-0.479,0.985-0.126,1.409l0.812,0.972  c0.198,0.236,0.482,0.358,0.769,0.358c0.226,0,0.453-0.076,0.641-0.232c0.424-0.354,0.479-0.985,0.126-1.409L74.762,69.344z"/><path d="M57.569,63.952c-0.354-0.424-0.983-0.483-1.408-0.129c-0.425,0.354-0.482,0.984-0.129,1.408l0.811,0.974  c0.198,0.237,0.482,0.36,0.77,0.36c0.225,0,0.452-0.076,0.639-0.231c0.425-0.354,0.482-0.984,0.129-1.408L57.569,63.952z"/><path d="M73.212,66.078c0.502,0,0.935-0.376,0.992-0.887l0.146-1.279c0.063-0.548-0.331-1.044-0.88-1.106  c-0.541-0.075-1.045,0.33-1.106,0.88l-0.146,1.279c-0.063,0.548,0.331,1.044,0.88,1.106C73.136,66.076,73.174,66.078,73.212,66.078z  "/><path d="M37.8,70.513c-0.541-0.069-1.045,0.33-1.106,0.88l-0.146,1.279c-0.063,0.548,0.331,1.044,0.88,1.106  c0.038,0.005,0.076,0.007,0.114,0.007c0.502,0,0.935-0.376,0.992-0.887l0.146-1.279C38.743,71.071,38.349,70.575,37.8,70.513z"/><path d="M31.458,69.317c-0.541-0.072-1.045,0.33-1.106,0.88l-0.146,1.279c-0.063,0.548,0.331,1.044,0.88,1.106  c0.038,0.005,0.076,0.007,0.114,0.007c0.502,0,0.935-0.376,0.992-0.887l0.146-1.279C32.401,69.876,32.007,69.38,31.458,69.317z"/><path d="M26.61,67.013l-1.154,0.462c-0.514,0.205-0.763,0.787-0.558,1.3c0.156,0.392,0.532,0.629,0.929,0.629  c0.124,0,0.25-0.022,0.371-0.071l1.154-0.462c0.514-0.205,0.763-0.787,0.558-1.3C27.705,67.057,27.119,66.808,26.61,67.013z"/><path d="M42.894,64.964c-0.205-0.513-0.787-0.763-1.3-0.558l-1.154,0.461c-0.513,0.205-0.763,0.787-0.558,1.3  c0.156,0.391,0.532,0.629,0.929,0.629c0.124,0,0.249-0.022,0.371-0.071l1.154-0.461C42.849,66.059,43.099,65.477,42.894,64.964z"/><path d="M67.642,71.631l-1.154,0.461c-0.513,0.205-0.763,0.787-0.558,1.3c0.156,0.391,0.532,0.629,0.929,0.629  c0.124,0,0.249-0.022,0.371-0.071l1.154-0.461c0.513-0.205,0.763-0.787,0.558-1.3S68.155,71.425,67.642,71.631z"/><path d="M48.12,66.388L46.896,66.2c-0.548-0.086-1.057,0.291-1.14,0.837c-0.084,0.546,0.291,1.057,0.837,1.14l1.224,0.188  c0.051,0.008,0.103,0.012,0.152,0.012c0.485,0,0.912-0.354,0.987-0.849C49.041,66.981,48.666,66.471,48.12,66.388z"/><path d="M44.905,70.279l-1.224-0.188c-0.544-0.085-1.057,0.291-1.14,0.837c-0.084,0.546,0.291,1.057,0.837,1.14l1.224,0.188  c0.051,0.008,0.103,0.012,0.152,0.012c0.485,0,0.912-0.354,0.987-0.849C45.826,70.873,45.451,70.362,44.905,70.279z"/><path d="M21.303,71.251l-1.223-0.188c-0.547-0.086-1.057,0.291-1.14,0.837c-0.084,0.546,0.291,1.056,0.837,1.14L21,73.228  c0.051,0.008,0.103,0.012,0.152,0.012c0.485,0,0.912-0.354,0.987-0.849C22.224,71.845,21.849,71.335,21.303,71.251z"/><path d="M79.861,67.891c0.485,0,0.912-0.354,0.987-0.849c0.084-0.546-0.291-1.056-0.837-1.14l-1.223-0.188  c-0.546-0.084-1.057,0.291-1.14,0.837c-0.084,0.546,0.291,1.056,0.837,1.14l1.223,0.188C79.76,67.887,79.812,67.891,79.861,67.891z"/><path d="M80.012,71.157c-0.546-0.085-1.057,0.291-1.14,0.837c-0.084,0.546,0.291,1.056,0.837,1.14l1.223,0.188  c0.051,0.008,0.103,0.012,0.152,0.012c0.485,0,0.912-0.354,0.987-0.849c0.084-0.546-0.291-1.056-0.837-1.14L80.012,71.157z"/><path d="M51.704,69.817l-0.827,0.957c-0.361,0.418-0.314,1.05,0.103,1.411c0.189,0.163,0.422,0.243,0.654,0.243  c0.28,0,0.559-0.117,0.757-0.346l0.827-0.957c0.361-0.418,0.314-1.05-0.103-1.411C52.697,69.355,52.066,69.399,51.704,69.817z"/><path d="M57.309,70.533c-0.354-0.424-0.984-0.482-1.408-0.127c-0.424,0.354-0.48,0.984-0.127,1.408l0.812,0.972  c0.198,0.237,0.481,0.359,0.769,0.359c0.226,0,0.453-0.076,0.64-0.232c0.424-0.354,0.48-0.984,0.127-1.408L57.309,70.533z"/><path d="M89.125,31.589H72.261v-7.523c2.469-0.566,4.318-2.776,4.318-5.414c0-2.757-4.008-7.41-4.811-8.315  c-0.381-0.428-1.115-0.428-1.496,0c-0.803,0.905-4.811,5.559-4.811,8.315c0,2.807,2.093,5.128,4.799,5.5v7.437H58.247v-7.523  c2.469-0.566,4.318-2.776,4.318-5.414c0-2.757-4.008-7.41-4.811-8.315c-0.381-0.428-1.115-0.428-1.496,0  c-0.803,0.905-4.811,5.559-4.811,8.315c0,2.807,2.093,5.128,4.799,5.5v7.437H44.233v-7.523c2.469-0.566,4.318-2.776,4.318-5.414  c0-2.757-4.008-7.41-4.811-8.315c-0.381-0.428-1.115-0.428-1.496,0c-0.803,0.905-4.811,5.559-4.811,8.315  c0,2.807,2.093,5.128,4.799,5.5v7.437H30.22v-7.523c2.469-0.566,4.318-2.776,4.318-5.414c0-2.757-4.008-7.41-4.811-8.315  c-0.381-0.428-1.115-0.428-1.496,0c-0.803,0.905-4.811,5.559-4.811,8.315c0,2.807,2.093,5.128,4.799,5.5v7.437H11.129  c-0.553,0-1,0.447-1,1v8.891c0,0.063,0.006,0.125,0.018,0.185c0.063,3.041,1.68,5.703,4.084,7.235v26.175h-0.688  c-1.953,0-3.543,1.59-3.543,3.543v2.023c0,1.682,1.182,3.088,2.756,3.448c0.007,0.027,0.002,0.055,0.012,0.082l1.717,4.768  C14.737,89.643,15.617,90,17.099,90h65.803c1.481,0,2.361-0.357,2.612-1.061l1.718-4.77c0.01-0.027,0.005-0.055,0.012-0.082  C88.818,83.728,90,82.322,90,80.64v-2.023c0-1.953-1.59-3.543-3.543-3.543H85.77V49.061c2.601-1.53,4.355-4.351,4.355-7.581v-8.891  C90.125,32.036,89.678,31.589,89.125,31.589z M67.462,18.651c0-1.336,1.953-4.152,3.559-6.109c1.668,2.035,3.559,4.832,3.559,6.109  c0,1.962-1.597,3.559-3.559,3.559S67.462,20.613,67.462,18.651z M53.448,18.651c0-1.336,1.953-4.152,3.559-6.109  c1.668,2.035,3.559,4.832,3.559,6.109c0,1.962-1.597,3.559-3.559,3.559S53.448,20.613,53.448,18.651z M39.435,18.651  c0-1.336,1.953-4.152,3.559-6.109c1.668,2.035,3.559,4.832,3.559,6.109c0,1.962-1.597,3.559-3.559,3.559  S39.435,20.613,39.435,18.651z M25.421,18.651c0-1.336,1.953-4.152,3.559-6.109c1.668,2.035,3.559,4.832,3.559,6.109  c0,1.962-1.597,3.559-3.559,3.559S25.421,20.613,25.421,18.651z M82.901,88H17.099c-0.38,0-0.672-0.038-0.853-0.077l-1.348-3.74  h70.204l-1.348,3.74C83.573,87.962,83.281,88,82.901,88z M88,78.616v2.023c0,0.851-0.692,1.543-1.543,1.543H13.543  C12.692,82.183,12,81.49,12,80.64v-2.023c0-0.851,0.692-1.543,1.543-1.543h72.914C87.308,77.073,88,77.766,88,78.616z M83.77,75.073  H16.23V49.844c0.855,0.278,1.765,0.433,2.712,0.433c3.383,0,6.326-1.919,7.798-4.727c1.472,2.808,4.415,4.727,7.798,4.727  c3.384,0,6.327-1.92,7.799-4.727c1.472,2.807,4.415,4.727,7.798,4.727s6.326-1.919,7.798-4.727c1.472,2.808,4.415,4.727,7.798,4.727  c3.384,0,6.327-1.92,7.799-4.727c1.472,2.807,4.415,4.727,7.798,4.727c0.848,0,1.666-0.127,2.442-0.352V75.073z M88.125,41.479  c0,3.748-3.05,6.798-6.798,6.798s-6.798-3.05-6.798-6.798c0-0.553-0.447-1-1-1s-1,0.447-1,1c0,3.748-3.05,6.798-6.799,6.798  c-3.748,0-6.798-3.05-6.798-6.798c0-0.553-0.447-1-1-1s-1,0.447-1,1c0,3.748-3.05,6.798-6.798,6.798s-6.798-3.05-6.798-6.798  c0-0.553-0.447-1-1-1s-1,0.447-1,1c0,3.748-3.05,6.798-6.799,6.798c-3.748,0-6.798-3.05-6.798-6.798c0-0.553-0.447-1-1-1  s-1,0.447-1,1c0,3.748-3.05,6.798-6.798,6.798s-6.798-3.05-6.798-6.798c0-0.06-0.005-0.117-0.016-0.174v-7.717h75.996V41.479z"/><text x="0" y="115" fill="#000000" font-size="5px" font-weight="bold" font-family="'Helvetica Neue', Helvetica, Arial-Unicode, Arial, Sans-serif">Created by Made</text><text x="0" y="120" fill="#000000" font-size="5px" font-weight="bold" font-family="'Helvetica Neue', Helvetica, Arial-Unicode, Arial, Sans-serif">from the Noun Project</text></svg>